<mxfile host="app.diagrams.net" modified="2021-03-24T22:54:17.678Z" agent="5.0 (Windows NT 10.0; Win64; x64) AppleWebKit/537.36 (KHTML, like Gecko) Chrome/89.0.4389.90 Safari/537.36" etag="0vmr1bb2DWSXlY-xkTOg" version="14.5.1" type="github">
  <diagram id="rTNtYrn7hHBPd-B_lGoH" name="Page-1">
    <mxGraphModel dx="1791" dy="1101" grid="1" gridSize="10" guides="1" tooltips="1" connect="1" arrows="1" fold="1" page="1" pageScale="1" pageWidth="850" pageHeight="1100" math="0" shadow="0">
      <root>
        <mxCell id="0" />
        <mxCell id="1" parent="0" />
        <mxCell id="QM8wQPkqBQmamn_CLQ5U-1" value="" style="edgeStyle=orthogonalEdgeStyle;rounded=0;orthogonalLoop=1;jettySize=auto;html=1;" edge="1" parent="1" source="QM8wQPkqBQmamn_CLQ5U-2" target="QM8wQPkqBQmamn_CLQ5U-5">
          <mxGeometry relative="1" as="geometry" />
        </mxCell>
        <mxCell id="QM8wQPkqBQmamn_CLQ5U-2" value="User Opens App" style="rounded=0;whiteSpace=wrap;html=1;" vertex="1" parent="1">
          <mxGeometry x="365" y="20" width="120" height="80" as="geometry" />
        </mxCell>
        <mxCell id="QM8wQPkqBQmamn_CLQ5U-3" value="" style="edgeStyle=orthogonalEdgeStyle;rounded=0;orthogonalLoop=1;jettySize=auto;html=1;" edge="1" parent="1" source="QM8wQPkqBQmamn_CLQ5U-5" target="QM8wQPkqBQmamn_CLQ5U-7">
          <mxGeometry relative="1" as="geometry" />
        </mxCell>
        <mxCell id="QM8wQPkqBQmamn_CLQ5U-4" value="" style="edgeStyle=orthogonalEdgeStyle;rounded=0;orthogonalLoop=1;jettySize=auto;html=1;" edge="1" parent="1" source="QM8wQPkqBQmamn_CLQ5U-5" target="QM8wQPkqBQmamn_CLQ5U-9">
          <mxGeometry relative="1" as="geometry" />
        </mxCell>
        <mxCell id="QM8wQPkqBQmamn_CLQ5U-5" value="New Game? or&lt;br&gt;Continue?" style="rounded=1;whiteSpace=wrap;html=1;glass=0;" vertex="1" parent="1">
          <mxGeometry x="365" y="150" width="120" height="80" as="geometry" />
        </mxCell>
        <mxCell id="QM8wQPkqBQmamn_CLQ5U-6" style="edgeStyle=orthogonalEdgeStyle;rounded=0;orthogonalLoop=1;jettySize=auto;html=1;exitX=0.5;exitY=1;exitDx=0;exitDy=0;" edge="1" parent="1" source="QM8wQPkqBQmamn_CLQ5U-7">
          <mxGeometry relative="1" as="geometry">
            <mxPoint x="425" y="390" as="targetPoint" />
          </mxGeometry>
        </mxCell>
        <mxCell id="QM8wQPkqBQmamn_CLQ5U-7" value="New Game Starts" style="rounded=0;whiteSpace=wrap;html=1;" vertex="1" parent="1">
          <mxGeometry x="495" y="250" width="120" height="80" as="geometry" />
        </mxCell>
        <mxCell id="QM8wQPkqBQmamn_CLQ5U-8" value="" style="edgeStyle=orthogonalEdgeStyle;rounded=0;orthogonalLoop=1;jettySize=auto;html=1;exitX=0.5;exitY=1;exitDx=0;exitDy=0;" edge="1" parent="1" source="QM8wQPkqBQmamn_CLQ5U-9" target="QM8wQPkqBQmamn_CLQ5U-10">
          <mxGeometry relative="1" as="geometry" />
        </mxCell>
        <mxCell id="QM8wQPkqBQmamn_CLQ5U-9" value="Continue" style="rounded=0;whiteSpace=wrap;html=1;" vertex="1" parent="1">
          <mxGeometry x="235" y="250" width="120" height="80" as="geometry" />
        </mxCell>
        <mxCell id="QM8wQPkqBQmamn_CLQ5U-10" value="Cards dealt&lt;br&gt;Awaiting user input" style="rounded=0;whiteSpace=wrap;html=1;" vertex="1" parent="1">
          <mxGeometry x="365" y="390" width="120" height="80" as="geometry" />
        </mxCell>
      </root>
    </mxGraphModel>
  </diagram>
</mxfile>
